<?xml version="1.0" encoding="utf-8"?><!-- Uploaded to: SVG Repo, www.svgrepo.com, Generator: SVG Repo Mixer Tools -->
<svg width="200px" height="200px" viewBox="0 0 400 400" fill="none" xmlns="http://www.w3.org/2000/svg">
<path fill-rule="evenodd" clip-rule="evenodd" d="M174.52 188.088C178.276 183.012 226.006 191.693 271.233 180.591C279.238 178.626 270.156 229.162 267.083 234.36C266.331 235.627 188.372 224.835 178.926 223.638C177.81 217.977 172.914 190.258 174.52 188.088Z" stroke="#000000" stroke-opacity="0.9" stroke-width="16" stroke-linecap="round" stroke-linejoin="round"/>
<path d="M277.455 180.536C287.915 109.647 307.855 167.231 310.384 164.619C319.65 155.048 330.24 143.292 333.138 145.94C345.338 157.083 325.265 234.162 319.36 240.352C318.181 241.587 291.256 197.003 287.915 192.039" stroke="#000000" stroke-opacity="0.9" stroke-width="16" stroke-linecap="round" stroke-linejoin="round"/>
<path d="M268.377 232.412C273.28 245.947 277.409 285.765 277.454 287" stroke="#000000" stroke-opacity="0.9" stroke-width="16" stroke-linecap="round" stroke-linejoin="round"/>
<path d="M264.974 240.373C261.524 254.214 257.772 276.179 255.896 287" stroke="#000000" stroke-opacity="0.9" stroke-width="16" stroke-linecap="round" stroke-linejoin="round"/>
<path d="M183.275 240.373C187.8 253.231 191.471 269.087 194.622 282.451" stroke="#000000" stroke-opacity="0.9" stroke-width="16" stroke-linecap="round" stroke-linejoin="round"/>
<path d="M179.872 225.588C174.462 244.542 171.647 265.69 167.391 284.726" stroke="#000000" stroke-opacity="0.9" stroke-width="16" stroke-linecap="round" stroke-linejoin="round"/>
<path d="M169.293 191.449C149.965 175.446 131.488 157.914 112.813 140.987C16.7879 53.9466 84.1336 197.105 112.446 203.882C135.171 209.323 150.553 195.529 169.66 187.063" stroke="#000000" stroke-opacity="0.9" stroke-width="16" stroke-linecap="round" stroke-linejoin="round"/>
</svg>